# xmcd
#
# Track frame offsets:
#	150
#	21000
#	34450
#	63182
#	85935
#	106355
#	126067
#	152320
#	170310
#	208890
#	225952
#	242892
#	256260
#	290337
#	306595
#
# Disc length: 4475 seconds
#
# Revision: 1
# Processed by: cddbd v1.5.2PL0 Copyright (c) Steve Scherf et al.
# Submitted via: EasyCDDAExtractor 10.0.1.1
#
DISCID=c411790f
DTITLE=Various Artist - ...And Back To Earth Again, Ten Years Of Meteor City
DYEAR=2007
DGENRE=Hard Rock
TTITLE0=Unida - Delta Alba Plex
TTITLE1=The Atomic Bitchwax - The Destroyer
TTITLE2=Eternal Elysium - W.T.G.B.
TTITLE3=Blind Dog - Don't Ask Me Where I Stand
TTITLE4=Cosmosquad - Murders in the Rue Morgue
TTITLE5=The Hidden Hand - Five Points
TTITLE6=Lowrider - Shivaree
TTITLE7=Las Cruces - In My Sadness
TTITLE8=Spiritu - Latitude
TTITLE9=I Are Droid - Serenade
TTITLE10=Spirit Caravan - No Hope Goat Farm
TTITLE11=The Ribeye Brothers - Last Place Champs
TTITLE12=Lowrider - Texas, Pt. 1 and 2
TTITLE13=Truckfighters - In Search of (the)
TTITLE14=Solace - Once Around the Sun
EXTD=
EXTT0=
EXTT1=
EXTT2=
EXTT3=
EXTT4=
EXTT5=
EXTT6=
EXTT7=
EXTT8=
EXTT9=
EXTT10=
EXTT11=
EXTT12=
EXTT13=
EXTT14=
PLAYORDER=
